<svg width="30" height="30" viewBox="0 0 30 30" fill="none" xmlns="http://www.w3.org/2000/svg">
<path d="M23.8262 7.69386L23.8126 7.67992C19.9568 3.82417 14.1825 3.02848 9.53418 5.29173L11.0475 6.80505C14.8267 5.26923 19.3287 6.03005 22.3918 9.08755L27.9999 14.9178V15.112L23.7611 19.5189L25.1754 20.9332L29.9999 15.9178V14.112L23.8262 7.69386Z" fill="black"/>
<path d="M21.4368 17.1452C21.9722 15.9442 22.1307 14.6091 21.8914 13.3162C21.652 12.0232 21.0262 10.8333 20.0964 9.90352C19.1666 8.97374 17.9767 8.34787 16.6838 8.10855C15.3908 7.86924 14.0557 8.02773 12.8547 8.56312L14.4229 10.1312C15.1749 9.94549 15.9622 9.95709 16.7084 10.1649C17.4547 10.3728 18.1346 10.7698 18.6824 11.3175C19.2301 11.8653 19.6272 12.5452 19.835 13.2915C20.0428 14.0377 20.0544 14.825 19.8687 15.5771L21.4368 17.1452Z" fill="black"/>
<path d="M0 0V1.37125L6.24856 7.61987C6.22819 7.63994 6.20756 7.65963 6.18725 7.67988L0 14.1119V15.9177L6.17362 22.3358L6.18725 22.3496C8.28086 24.4378 11.0478 25.715 13.9952 25.9535C16.9425 26.192 19.8788 25.3765 22.281 23.6521L28.6287 30H30V28.5429L1.45706 0H0ZM4.12388 12.7097L5.18862 11.6028L17.3213 23.7354C16.6902 23.878 16.0473 23.962 15.4008 23.9866L4.12388 12.7097ZM2 15.1119V14.9177L2.73712 14.1514L12.2021 23.6163C10.465 23.1379 8.88203 22.2164 7.60831 20.9421L2 15.1119ZM19.4299 23.0158L6.57538 10.1611L7.60806 9.0875C7.62619 9.06944 7.64469 9.05206 7.66288 9.03413L20.8441 22.2154C20.3944 22.5187 19.9215 22.7863 19.4299 23.0158Z" fill="black"/>
</svg>
